# xmcd CD database file
#
# Track frame offsets:
#	150
#	15040
#	37790
#	53442
#	73075
#	93862
#	118305
#	142022
#	148630
#	170065
#	185530
#	214560
#	238952
#
# Disc length: 3503 seconds
#
# Revision: 0
# Processed by: cddbd v1.5.1PL2 Copyright (c) Steve Scherf et al.
# Submitted via: CDex 1.51
#
DISCID=b20dad0d
DTITLE=geodezik - MAN IN ERROR
DYEAR=1999
DGENRE=Techno
TTITLE0=Eye - Link
TTITLE1=Fish and Microchips
TTITLE2=Dear Lord Please Send Back P.K.D
TTITLE3=Trap Town
TTITLE4=As Above As Below
TTITLE5=Night Dive
TTITLE6=Wire
TTITLE7=Space Hawiian Ceanter
TTITLE8=Why MO ?
TTITLE9=Home Computer Entertainment
TTITLE10=Outstepper
TTITLE11=Lost
TTITLE12=Man In Error
EXTD=YEAR: 1999
EXTT0=
EXTT1=
EXTT2=
EXTT3=
EXTT4=
EXTT5=
EXTT6=
EXTT7=
EXTT8=
EXTT9=
EXTT10=
EXTT11=
EXTT12=
PLAYORDER=
